<svg width="15" height="25" viewBox="0 0 15 25" fill="none" xmlns="http://www.w3.org/2000/svg">
<g id="Dictation">
<path id="Mic" fill-rule="evenodd" clip-rule="evenodd" d="M0 11.6667C0 11.0398 0.373096 10.6667 1 10.6667C1.29357 10.6667 1.66667 11.0398 1.66667 11.6667C1.66667 16.8582 3.57062 19.3333 7.66667 19.3333C11.4294 19.3333 13.3333 16.8582 13.3333 11.6667C13.3333 11.0398 13.7064 10.6667 14.3333 10.6667C14.6269 10.6667 15 11.0398 15 11.6667C15 17.4114 12.6948 20.6806 8.33333 20.9778V23.3333H11.5C11.9602 23.3333 12.3333 23.7064 12.3333 24.1667C12.3333 24.6269 11.9602 25 11.5 25H8.33333H6.66667H3.5C3.03976 25 2.66667 24.6269 2.66667 24.1667C2.66667 23.7064 3.03976 23.3333 3.5 23.3333H6.66667V20.9553C2.21 20.543 0 17.2914 0 11.6667ZM7.5 1.66667C5.93519 1.66667 4.66667 2.93519 4.66667 4.5V13.5C4.66667 15.0648 5.93519 16.3333 7.5 16.3333C9.06481 16.3333 10.3333 15.0648 10.3333 13.5V4.5C10.3333 2.93519 9.06481 1.66667 7.5 1.66667ZM7.5 0C9.98528 0 12 2.01472 12 4.5V13.5C12 15.9853 9.98528 18 7.5 18C5.01472 18 3 15.9853 3 13.5V4.5C3 2.01472 5.01472 0 7.5 0Z" fill="#50555C"/>
</g>
</svg>
