<svg width="26" height="26" viewBox="0 0 26 26" fill="none" xmlns="http://www.w3.org/2000/svg">
<g id="Emoji">
<path id="Emoji_2" fill-rule="evenodd" clip-rule="evenodd" d="M13 0C20.1797 0 26 5.8203 26 13C26 20.1797 20.1797 26 13 26C5.8203 26 0 20.1797 0 13C0 5.8203 5.8203 0 13 0ZM13 1.5145C19.3431 1.51522 24.4847 6.65777 24.4842 13.0009C24.4837 19.344 19.3414 24.4857 12.9983 24.4855C6.65517 24.4853 1.5132 19.3431 1.5132 13C1.51329 9.95366 2.72357 7.03213 4.87778 4.87816C7.03199 2.72419 9.95366 1.51424 13 1.5145ZM8.88745 7.36125C8.48563 7.35646 8.09868 7.51301 7.81322 7.79584C7.52777 8.07867 7.36765 8.46416 7.36872 8.866C7.36872 9.70477 8.04868 10.3847 8.88745 10.3847C9.72622 10.3847 10.4062 9.70477 10.4062 8.866C10.4072 8.46416 10.2471 8.07867 9.96167 7.79584C9.67622 7.51301 9.28927 7.35646 8.88745 7.36125ZM12.9963 22.3032C8.67068 22.4366 4.74804 19.0255 3.99631 15.3032C3.86664 14.404 4.95592 14.1862 5.668 14.3585C8.05011 15.0473 10.5205 15.3823 13 15.353C15.4739 15.3817 17.9387 15.0477 20.3158 14.3618C21.008 14.1862 22.0827 14.3845 21.9857 15.3032C21.3046 18.98 17.3608 22.4366 12.9963 22.3032ZM19.1081 15.8275C19.1009 15.8307 19.3297 15.756 19.3229 15.7592C17.2673 16.3251 15.1426 16.5997 13.1736 16.6715C10.4666 16.575 8.1913 16.2922 6.62545 15.73C5.49022 15.392 5.70797 16.7277 6.50585 17.1372C8.54702 18.0665 10.7678 18.5347 13.1736 18.6715C15.678 18.5087 18.055 17.888 19.6251 17.0852C20.3681 16.6075 20.515 15.327 19.3134 15.7592C19.2458 15.7852 19.1773 15.8047 19.1081 15.8275ZM17.121 7.36125C16.7192 7.35646 16.3322 7.513 16.0467 7.79582C15.7612 8.07864 15.601 8.46413 15.6019 8.866C15.5939 9.41394 15.8817 9.92373 16.3549 10.2C16.8281 10.4763 17.4135 10.4763 17.8868 10.2C18.36 9.92373 18.6477 9.41394 18.6397 8.866C18.6407 8.46418 18.4806 8.07875 18.1951 7.79594C17.9097 7.51313 17.5228 7.35655 17.121 7.36125Z" fill="#50555C"/>
</g>
</svg>
