<svg width="29" height="12" viewBox="0 0 29 12" fill="none" xmlns="http://www.w3.org/2000/svg">
<g id="Left Side">
<g id="9:41">
<path d="M4.3208 11.2563C7.00879 11.2563 8.60547 9.1543 8.60547 5.59473C8.60547 4.25439 8.34912 3.12646 7.8584 2.25488C7.14795 0.899902 5.9248 0.16748 4.37939 0.16748C2.07959 0.16748 0.453613 1.71289 0.453613 3.88086C0.453613 5.91699 1.91846 7.39648 3.93262 7.39648C5.17041 7.39648 6.17383 6.81787 6.67188 5.81445H6.69385C6.69385 5.81445 6.72314 5.81445 6.73047 5.81445C6.74512 5.81445 6.79639 5.81445 6.79639 5.81445C6.79639 8.23145 5.88086 9.67432 4.33545 9.67432C3.42725 9.67432 2.72412 9.17627 2.48242 8.37793H0.600098C0.915039 10.1138 2.38721 11.2563 4.3208 11.2563ZM4.38672 5.89502C3.1709 5.89502 2.30664 5.03076 2.30664 3.82227C2.30664 2.64307 3.21484 1.74219 4.39404 1.74219C5.57324 1.74219 6.48145 2.65771 6.48145 3.85156C6.48145 5.03076 5.59521 5.89502 4.38672 5.89502Z" fill="black"/>
<path d="M11.6966 11.1538C12.3924 11.1538 12.8685 10.6558 12.8685 9.99658C12.8685 9.33008 12.3924 8.83936 11.6966 8.83936C11.0081 8.83936 10.5247 9.33008 10.5247 9.99658C10.5247 10.6558 11.0081 11.1538 11.6966 11.1538ZM11.6966 5.66064C12.3924 5.66064 12.8685 5.16992 12.8685 4.51074C12.8685 3.84424 12.3924 3.35352 11.6966 3.35352C11.0081 3.35352 10.5247 3.84424 10.5247 4.51074C10.5247 5.16992 11.0081 5.66064 11.6966 5.66064Z" fill="black"/>
<path d="M19.7242 11H21.5333V9.02979H22.9615V7.43311H21.5333V0.431152H18.8673C16.9996 3.24365 15.5128 5.59473 14.5606 7.34521V9.02979H19.7242V11ZM16.3111 7.36719C17.5416 5.19922 18.6402 3.46338 19.651 1.96924H19.7535V7.47705H16.3111V7.36719Z" fill="black"/>
<path d="M26.9901 11H28.8798V0.431152H26.9975L24.2362 2.36475V4.18115L26.8656 2.33545H26.9901V11Z" fill="black"/>
</g>
</g>
</svg>
